<svg width="35" height="35" viewBox="0 0 35 35" fill="none" xmlns="http://www.w3.org/2000/svg">
<path d="M18.9992 2.9165C20.6398 2.92088 21.4726 2.92963 22.1915 2.95005L22.4744 2.96025C22.8011 2.97192 23.1234 2.9865 23.5128 3.004C25.0644 3.07692 26.1232 3.32192 27.0521 3.68213C28.0146 4.05255 28.8255 4.55421 29.6363 5.36359C30.3781 6.09236 30.952 6.97428 31.3178 7.94775C31.678 8.87671 31.923 9.93546 31.9959 11.4886C32.0134 11.8765 32.028 12.1988 32.0396 12.5269L32.0484 12.8098C32.0703 13.5273 32.079 14.36 32.0819 16.0007L32.0834 17.0886V18.999C32.0869 20.0627 32.0758 21.1264 32.0498 22.1898L32.0411 22.4728C32.0294 22.8009 32.0148 23.1232 31.9973 23.5111C31.9244 25.0642 31.6765 26.1215 31.3178 27.0519C30.952 28.0254 30.3781 28.9073 29.6363 29.6361C28.9075 30.3779 28.0256 30.9518 27.0521 31.3175C26.1232 31.6778 25.0644 31.9228 23.5128 31.9957L22.4744 32.0394L22.1915 32.0482C21.4726 32.0686 20.6398 32.0788 18.9992 32.0817L17.9113 32.0832H16.0023C14.9381 32.0869 13.8739 32.0757 12.8101 32.0496L12.5271 32.0409C12.1809 32.0278 11.8348 32.0127 11.4888 31.9957C9.93714 31.9228 8.87839 31.6778 7.94797 31.3175C6.97502 30.9516 6.09362 30.3778 5.36526 29.6361C4.62289 28.9075 4.04855 28.0255 3.68235 27.0519C3.32214 26.123 3.07714 25.0642 3.00422 23.5111L2.96047 22.4728L2.95318 22.1898C2.9263 21.1264 2.91414 20.0627 2.91672 18.999V16.0007C2.91269 14.937 2.92338 13.8732 2.94881 12.8098L2.95901 12.5269C2.97068 12.1988 2.98526 11.8765 3.00276 11.4886C3.07568 9.93546 3.32068 8.87817 3.68089 7.94775C4.04794 6.97388 4.6233 6.09193 5.36672 5.36359C6.09465 4.6221 6.97554 4.04828 7.94797 3.68213C8.87839 3.32192 9.93568 3.07692 11.4888 3.004C11.8767 2.9865 12.2005 2.97192 12.5271 2.96025L12.8101 2.9515C13.8735 2.92559 14.9372 2.91441 16.0009 2.91796L18.9992 2.9165ZM17.5001 10.2082C15.5662 10.2082 13.7115 10.9764 12.3441 12.3439C10.9766 13.7113 10.2084 15.566 10.2084 17.4998C10.2084 19.4337 10.9766 21.2884 12.3441 22.6558C13.7115 24.0233 15.5662 24.7915 17.5001 24.7915C19.4339 24.7915 21.2886 24.0233 22.656 22.6558C24.0235 21.2884 24.7917 19.4337 24.7917 17.4998C24.7917 15.566 24.0235 13.7113 22.656 12.3439C21.2886 10.9764 19.4339 10.2082 17.5001 10.2082ZM17.5001 13.1248C18.0746 13.1247 18.6435 13.2378 19.1744 13.4576C19.7052 13.6774 20.1875 13.9995 20.5939 14.4057C21.0002 14.8119 21.3225 15.2942 21.5425 15.8249C21.7624 16.3557 21.8757 16.9246 21.8758 17.4991C21.8759 18.0736 21.7628 18.6426 21.543 19.1734C21.3233 19.7042 21.0011 20.1866 20.5949 20.5929C20.1887 20.9992 19.7065 21.3216 19.1757 21.5415C18.6449 21.7615 18.076 21.8747 17.5015 21.8748C16.3412 21.8748 15.2284 21.4139 14.4079 20.5934C13.5875 19.773 13.1265 18.6602 13.1265 17.4998C13.1265 16.3395 13.5875 15.2267 14.4079 14.4062C15.2284 13.5858 16.3412 13.1248 17.5015 13.1248M25.1578 8.02067C24.6743 8.02067 24.2106 8.21273 23.8688 8.55459C23.5269 8.89645 23.3348 9.36012 23.3348 9.84359C23.3348 10.3271 23.5269 10.7907 23.8688 11.1326C24.2106 11.4744 24.6743 11.6665 25.1578 11.6665C25.6412 11.6665 26.1049 11.4744 26.4468 11.1326C26.7886 10.7907 26.9807 10.3271 26.9807 9.84359C26.9807 9.36012 26.7886 8.89645 26.4468 8.55459C26.1049 8.21273 25.6412 8.02067 25.1578 8.02067Z" fill="#FFF6F0"/>
</svg>
