<svg width="35" height="35" viewBox="0 0 35 35" fill="none" xmlns="http://www.w3.org/2000/svg">
<path d="M17.4999 28.2698L9.02702 33.3739C8.65272 33.6121 8.2614 33.7142 7.85306 33.6802C7.44473 33.6462 7.08744 33.5101 6.78119 33.2719C6.47494 33.0337 6.23674 32.7363 6.06661 32.3797C5.89647 32.023 5.86244 31.6229 5.96452 31.1792L8.21035 21.5323L0.707231 15.05C0.366953 14.7437 0.15462 14.3946 0.0702308 14.0026C-0.0141581 13.6106 0.0110223 13.2281 0.145772 12.8552C0.280522 12.4823 0.484689 12.176 0.758272 11.9365C1.03186 11.6969 1.40616 11.5438 1.88119 11.4771L11.7833 10.6094L15.6114 1.52395C15.7815 1.11562 16.0456 0.809367 16.4036 0.6052C16.7615 0.401033 17.127 0.29895 17.4999 0.29895C17.8729 0.29895 18.2383 0.401033 18.5963 0.6052C18.9543 0.809367 19.2183 1.11562 19.3885 1.52395L23.2166 10.6094L33.1187 11.4771C33.5951 11.5451 33.9694 11.6983 34.2416 11.9365C34.5138 12.1746 34.718 12.4809 34.8541 12.8552C34.9902 13.2295 35.0161 13.6127 34.9317 14.0047C34.8473 14.3967 34.6343 14.7451 34.2926 15.05L26.7895 21.5323L29.0354 31.1792C29.1374 31.6215 29.1034 32.0217 28.9333 32.3797C28.7631 32.7376 28.5249 33.035 28.2187 33.2719C27.9124 33.5087 27.5551 33.6448 27.1468 33.6802C26.7385 33.7156 26.3472 33.6135 25.9729 33.3739L17.4999 28.2698Z" fill="#F39221"/>
</svg>
