<svg width="35" height="35" viewBox="0 0 35 35" fill="none" xmlns="http://www.w3.org/2000/svg">
<path d="M17.5 2.9165C9.44996 2.9165 2.91663 9.44984 2.91663 17.4998C2.91663 25.5498 9.44996 32.0832 17.5 32.0832C25.55 32.0832 32.0833 25.5498 32.0833 17.4998C32.0833 9.44984 25.55 2.9165 17.5 2.9165ZM24.2666 12.8332C24.0479 15.1373 23.1 20.7373 22.6187 23.3186C22.4145 24.4123 22.0062 24.7769 21.627 24.8207C20.7812 24.8936 20.1395 24.2665 19.3229 23.7269C18.0395 22.8811 17.3104 22.3561 16.0708 21.5394C14.627 20.5915 15.5604 20.0665 16.3916 19.2207C16.6104 19.0019 20.3437 15.604 20.4166 15.2978C20.4268 15.2514 20.4254 15.2032 20.4127 15.1575C20.4 15.1117 20.3763 15.0698 20.3437 15.0353C20.2562 14.9623 20.1395 14.9915 20.0375 15.0061C19.9062 15.0353 17.8645 16.3915 13.8833 19.0748C13.3 19.4686 12.775 19.6728 12.3083 19.6582C11.7833 19.6436 10.7916 19.3665 10.0479 19.1186C9.12913 18.8269 8.41454 18.6665 8.47288 18.1561C8.50204 17.8936 8.86663 17.6311 9.55204 17.354C13.8104 15.5019 16.6395 14.2769 18.0541 13.6936C22.1083 12.0019 22.9395 11.7103 23.4937 11.7103C23.6104 11.7103 23.8875 11.7394 24.0625 11.8853C24.2083 12.0019 24.252 12.1623 24.2666 12.279C24.252 12.3665 24.2812 12.629 24.2666 12.8332Z" fill="#FFF6F0"/>
</svg>
