<svg width="35" height="35" viewBox="0 0 35 35" fill="none" xmlns="http://www.w3.org/2000/svg">
<path d="M4.1 5.1C2 7.22 2 10.61 2 17.4V18.6C2 25.38 2 28.77 4.1 30.9C6.22 33 9.61 33 16.4 33H17.6C24.38 33 27.77 33 29.9 30.9C32 28.78 32 25.39 32 18.6V17.4C32 10.62 32 7.23 29.9 5.1C27.78 3 24.39 3 17.6 3H16.4C9.62 3 6.23 3 4.1 5.1ZM7.06 12.13H10.5C10.61 17.85 13.13 20.27 15.13 20.77V12.13H18.36V17.06C20.33 16.85 22.41 14.6 23.11 12.12H26.33C26.0673 13.4037 25.5427 14.6194 24.7891 15.6914C24.0355 16.7633 23.069 17.6683 21.95 18.35C23.1991 18.9714 24.3021 19.8507 25.1864 20.9298C26.0707 22.0089 26.7161 23.2632 27.08 24.61H23.53C22.77 22.24 20.87 20.4 18.36 20.15V24.61H17.96C11.12 24.61 7.22 19.93 7.06 12.13Z" fill="#FFF6F0"/>
</svg>
