<svg width="35" height="35" viewBox="0 0 35 35" fill="none" xmlns="http://www.w3.org/2000/svg">
<path fill-rule="evenodd" clip-rule="evenodd" d="M17.5 2.9165C9.44558 2.9165 2.91663 9.44546 2.91663 17.4998C2.91663 20.2561 3.68225 22.8373 5.01371 25.0365L3.71288 29.4582C3.63819 29.712 3.63327 29.9813 3.69865 30.2378C3.76403 30.4942 3.89728 30.7283 4.0844 30.9154C4.27152 31.1025 4.5056 31.2358 4.76203 31.3011C5.01845 31.3665 5.28776 31.3616 5.54163 31.2869L9.96329 29.9861C12.2365 31.3612 14.8432 32.0866 17.5 32.0832C25.5543 32.0832 32.0833 25.5542 32.0833 17.4998C32.0833 9.44546 25.5543 2.9165 17.5 2.9165ZM14.2012 20.8C17.1514 23.7488 19.9675 24.1382 20.962 24.1746C22.4743 24.23 23.9472 23.075 24.5204 21.7348C24.5921 21.568 24.618 21.385 24.5955 21.2048C24.5729 21.0246 24.5027 20.8536 24.392 20.7096C23.5929 19.6888 22.5123 18.9553 21.4564 18.2261C21.2361 18.0733 20.9651 18.0119 20.7004 18.0549C20.4358 18.0979 20.1981 18.2419 20.0375 18.4565L19.1625 19.7909C19.1162 19.8623 19.0445 19.9136 18.962 19.9341C18.8794 19.9547 18.792 19.9431 18.7177 19.9017C18.1241 19.5619 17.2593 18.9844 16.6381 18.3632C16.0168 17.7419 15.4743 16.9165 15.1695 16.3609C15.1327 16.2901 15.1223 16.2085 15.1402 16.1307C15.1581 16.0529 15.2031 15.984 15.2673 15.9365L16.6147 14.9361C16.8076 14.7692 16.9321 14.5371 16.9644 14.2841C16.9967 14.0312 16.9345 13.7752 16.7897 13.5653C16.1364 12.6086 15.3752 11.3923 14.2712 10.5859C14.1284 10.4833 13.9616 10.4193 13.7868 10.4002C13.6121 10.381 13.4353 10.4073 13.2737 10.4765C11.932 11.0511 10.7712 12.524 10.8266 14.0392C10.8631 15.0338 11.2525 17.8498 14.2012 20.8Z" fill="#FFF6F0"/>
</svg>
