<svg width="167" height="27" viewBox="0 0 167 27" fill="none" xmlns="http://www.w3.org/2000/svg">
<path d="M13.4353 26.5267H6.29992L0 0.110444H7.51926L8.71602 9.21638L10.4999 18.0518L12.7805 9.21638L13.3676 6.80466L11.6289 0.110444H19.0127L20.6385 9.21638L22.6255 18.0518L23.8675 9.21638L25.1997 0.110444H32.0641L26.2384 26.5267H18.5385L15.7611 15.9106L13.4353 26.5267Z" fill="#FFF6F0"/>
<path d="M41.8658 24.2953C42.5281 24.2953 43.0324 24.0248 43.3787 23.4838C43.7399 22.9279 43.9206 22.169 43.9206 21.2074V14.0849C43.9206 11.1548 43.2281 9.68971 41.8432 9.68971C41.1959 9.68971 40.6916 9.95267 40.3303 10.4786C39.969 11.0045 39.7884 11.7483 39.7884 12.71V20.0353C39.7884 22.8753 40.4808 24.2953 41.8658 24.2953ZM41.6851 27C38.2379 27 35.7164 26.2186 34.1207 24.6559C32.525 23.0932 31.7272 20.5988 31.7272 17.1728C31.7272 13.7769 32.5326 11.2224 34.1433 9.50939C35.754 7.78137 38.3733 6.91736 42.0013 6.91736C45.5388 6.91736 48.0904 7.7438 49.656 9.39669C51.2366 11.0346 52.0269 13.5214 52.0269 16.8573C52.0269 20.3133 51.1915 22.8678 49.5205 24.5207C47.8646 26.1736 45.2528 27 41.6851 27Z" fill="#FFF6F0"/>
<path d="M61.7802 26.5267H54.4868V11.9437L53.132 11.1097V8.56273L57.9867 7.36814H59.8158L60.4706 12.7325C61.0878 9.05109 63.0673 7.21037 66.4092 7.21037C66.7856 7.21037 67.177 7.27799 67.5834 7.41322L66.8157 15.4373C66.4995 15.1518 65.8071 15.009 64.7383 15.009C63.2028 15.009 62.2168 15.4147 61.7802 16.2261V26.5267Z" fill="#FFF6F0"/>
<path d="M81.9937 26.5267L81.1131 23.6191C80.9927 23.8295 80.8497 24.0398 80.6841 24.2502C80.5335 24.4606 80.2852 24.731 79.9389 25.0616C79.5927 25.3772 79.2239 25.6551 78.8325 25.8956C78.4411 26.136 77.9518 26.3464 77.3648 26.5267C76.7777 26.707 76.1605 26.7971 75.5132 26.7971C73.0293 26.7971 71.2078 25.9482 70.0487 24.2502C68.8896 22.5522 68.31 20.1931 68.31 17.1728C68.31 15.2795 68.581 13.5965 69.1229 12.124C69.6648 10.6364 70.5154 9.44177 71.6745 8.5402C72.8336 7.63862 74.2336 7.18783 75.8745 7.18783C76.8529 7.18783 77.7261 7.29301 78.4938 7.50338C79.2615 7.71375 79.9239 7.9692 80.4809 8.26972V1.44027L77.997 0.606312V-1.87303L85.9905 -3H87.7517V26.5267H81.9937ZM78.8099 22.3794C79.0809 22.3794 79.3594 22.3343 79.6454 22.2442C79.9314 22.139 80.2099 21.9962 80.4809 21.8159V10.4786C80.0142 10.3734 79.5852 10.3208 79.1938 10.3208C77.1916 10.3358 76.1831 11.876 76.168 14.9414V18.0969C76.168 19.5094 76.4164 20.5763 76.9131 21.2975C77.4099 22.0188 78.0422 22.3794 78.8099 22.3794Z" fill="#FFF6F0"/>
<path d="M98.0307 26.5267H90.5566V0.110444H105.46V5.858L98.0307 5.40721V11.5379H104.127V17.1277L98.0307 16.6769V26.5267Z" fill="#FFF6F0"/>
<path d="M107.293 26.5267V1.03456L105.939 0.223141V-1.87303L113.187 -3H114.655V26.5267H107.293Z" fill="#FFF6F0"/>
<path d="M126.741 24.2953C127.403 24.2953 127.907 24.0248 128.254 23.4838C128.615 22.9279 128.795 22.169 128.795 21.2074V14.0849C128.795 11.1548 128.103 9.68971 126.718 9.68971C126.071 9.68971 125.566 9.95267 125.205 10.4786C124.844 11.0045 124.663 11.7483 124.663 12.71V20.0353C124.663 22.8753 125.356 24.2953 126.741 24.2953ZM126.56 27C123.113 27 120.591 26.2186 118.996 24.6559C117.4 23.0932 116.602 20.5988 116.602 17.1728C116.602 13.7769 117.407 11.2224 119.018 9.50939C120.629 7.78137 123.248 6.91736 126.876 6.91736C130.414 6.91736 132.965 7.7438 134.531 9.39669C136.111 11.0346 136.902 13.5214 136.902 16.8573C136.902 20.3133 136.066 22.8678 134.395 24.5207C132.739 26.1736 130.128 27 126.56 27Z" fill="#FFF6F0"/>
<path d="M149.771 26.5267H142.884L137.126 7.36814H145.278L148.01 19.5845L150.065 11.1999L149.003 7.36814H156.816L159.119 19.5845L162.168 7.36814H167L161.219 26.5267H154.355L152.142 18.6379L149.771 26.5267Z" fill="#FFF6F0"/>
</svg>
