<svg width="158" height="29" viewBox="0 0 158 29" fill="none" xmlns="http://www.w3.org/2000/svg">
<path d="M12.7547 27.9467H6.01334L0.0613403 2.944H7.16534L8.29601 11.5627L9.98134 19.9253L12.136 11.5627L12.6907 9.28L11.048 2.944H18.024L19.56 11.5627L21.4373 19.9253L22.6107 11.5627L23.8693 2.944H30.3547L24.8507 27.9467H17.576L14.952 17.8987L12.7547 27.9467Z" fill="#F39221"/>
<path d="M39.615 25.8347C40.2408 25.8347 40.7172 25.5787 41.0443 25.0667C41.3857 24.5404 41.5563 23.8222 41.5563 22.912V16.1707C41.5563 13.3973 40.9021 12.0107 39.5937 12.0107C38.9821 12.0107 38.5057 12.2596 38.1643 12.7573C37.823 13.2551 37.6523 13.9591 37.6523 14.8693V21.8027C37.6523 24.4907 38.3066 25.8347 39.615 25.8347ZM39.4443 28.3947C36.1875 28.3947 33.8052 27.6551 32.2977 26.176C30.7901 24.6969 30.0363 22.336 30.0363 19.0933C30.0363 15.8791 30.7972 13.4613 32.319 11.84C33.8408 10.2044 36.3155 9.38667 39.743 9.38667C43.0852 9.38667 45.4959 10.1689 46.975 11.7333C48.4683 13.2836 49.215 15.6373 49.215 18.7947C49.215 22.0658 48.4257 24.4836 46.847 26.048C45.2826 27.6124 42.815 28.3947 39.4443 28.3947Z" fill="#F39221"/>
<path d="M58.4297 27.9467H51.539V14.144L50.259 13.3547V10.944L54.8457 9.81333H56.5737L57.1923 14.8907C57.7755 11.4062 59.6457 9.664 62.803 9.664C63.1586 9.664 63.5283 9.728 63.9123 9.856L63.187 17.4507C62.8883 17.1804 62.2341 17.0453 61.2243 17.0453C59.7737 17.0453 58.8421 17.4293 58.4297 18.1973V27.9467Z" fill="#F39221"/>
<path d="M77.5268 27.9467L76.6948 25.1947C76.5811 25.3938 76.4459 25.5929 76.2895 25.792C76.1473 25.9911 75.9126 26.2471 75.5855 26.56C75.2584 26.8587 74.91 27.1218 74.5402 27.3493C74.1704 27.5769 73.7082 27.776 73.1535 27.9467C72.5988 28.1173 72.0157 28.2027 71.4042 28.2027C69.0575 28.2027 67.3366 27.3991 66.2415 25.792C65.1464 24.1849 64.5988 21.952 64.5988 19.0933C64.5988 17.3013 64.8548 15.7084 65.3668 14.3147C65.8788 12.9067 66.6824 11.776 67.7775 10.9227C68.8726 10.0693 70.1953 9.64267 71.7455 9.64267C72.67 9.64267 73.4948 9.74222 74.2202 9.94133C74.9455 10.1404 75.5713 10.3822 76.0975 10.6667V4.20267L73.7508 3.41333V1.06667L81.3028 0H82.9668V27.9467H77.5268ZM74.5188 24.0213C74.7748 24.0213 75.0379 23.9787 75.3082 23.8933C75.5784 23.7938 75.8415 23.6587 76.0975 23.488V12.7573C75.6566 12.6578 75.2513 12.608 74.8815 12.608C72.99 12.6222 72.0371 14.08 72.0228 16.9813V19.968C72.0228 21.3049 72.2575 22.3147 72.7268 22.9973C73.1962 23.68 73.7935 24.0213 74.5188 24.0213Z" fill="#F39221"/>
<path d="M92.6782 27.9467H85.6168V2.944H99.6968V8.384L92.6782 7.95733V13.76H98.4382V19.0507L92.6782 18.624V27.9467Z" fill="#F39221"/>
<path d="M101.429 27.9467V3.81867L100.149 3.05067V1.06667L106.997 0H108.384V27.9467H101.429Z" fill="#F39221"/>
<path d="M119.803 25.8347C120.428 25.8347 120.905 25.5787 121.232 25.0667C121.573 24.5404 121.744 23.8222 121.744 22.912V16.1707C121.744 13.3973 121.09 12.0107 119.781 12.0107C119.17 12.0107 118.693 12.2596 118.352 12.7573C118.011 13.2551 117.84 13.9591 117.84 14.8693V21.8027C117.84 24.4907 118.494 25.8347 119.803 25.8347ZM119.632 28.3947C116.375 28.3947 113.993 27.6551 112.485 26.176C110.978 24.6969 110.224 22.336 110.224 19.0933C110.224 15.8791 110.985 13.4613 112.507 11.84C114.028 10.2044 116.503 9.38667 119.931 9.38667C123.273 9.38667 125.683 10.1689 127.163 11.7333C128.656 13.2836 129.403 15.6373 129.403 18.7947C129.403 22.0658 128.613 24.4836 127.035 26.048C125.47 27.6124 123.003 28.3947 119.632 28.3947Z" fill="#F39221"/>
<path d="M141.561 27.9467H135.055L129.615 9.81333H137.316L139.897 21.376L141.839 13.44L140.836 9.81333H148.217L150.393 21.376L153.273 9.81333H157.839L152.377 27.9467H145.892L143.801 20.48L141.561 27.9467Z" fill="#F39221"/>
</svg>
